# xmcd CD database file
#
# Track frame offsets:
#	151
#	21241
#	46867
#	67097
#	73951
#	96814
#	119922
#	139174
#	163579
#	192411
#	209828
#
# Disc length: 3209 seconds
#
# Revision: 0
# Processed by: cddbd v1.5.1PL0 Copyright (c) Steve Scherf et al.
# Submitted via: CDex 1.60beta1
#
DISCID=b40c870b
DTITLE=Paul Stafford - Sun Rize
DYEAR=1900
DGENRE=Jazz
TTITLE0=Full Moon
TTITLE1=Jadas Journey
TTITLE2=Living
TTITLE3=Freddies Mix
TTITLE4=Sun Rise
TTITLE5=Mr. Robinson
TTITLE6=What Ever U Want
TTITLE7=The Ride
TTITLE8=Inner Groove
TTITLE9=Who Is He*
TTITLE10=Freddies Dead
EXTD=
EXTT0=
EXTT1=
EXTT2=
EXTT3=
EXTT4=
EXTT5=
EXTT6=
EXTT7=
EXTT8=
EXTT9=
EXTT10=
PLAYORDER=
